<svg width="353" height="360" viewBox="0 0 353 360" fill="none" xmlns="http://www.w3.org/2000/svg">
<path d="M0.572492 354.742C27.798 370.657 78 304 116 240C154 176 204.645 197.095 267 146C310.912 106.631 353.998 40.2267 349.782 -4M0.572492 291.5C46.3908 276.01 30.8226 251.764 89.1132 190.551C111 167.567 125.61 162.432 199.308 122.159C273.005 81.8857 280.5 21.1288 280.5 -4M0.572492 220.5C12 246.314 61.5472 117.703 139 88.5C204.75 63.7098 216 31.9362 216 -4M139 -0.5C120.408 42.1629 128.418 48.0271 78 63.5C58.215 68 14.2305 110.2 0.572492 139" stroke="#99562F" stroke-width="5"/>
</svg>
